<svg xmlns="http://www.w3.org/2000/svg" viewBox="0 0 1200 950">
  <defs>
    <marker id="arrowhead" markerWidth="10" markerHeight="7" refX="9" refY="3.5" orient="auto">
      <polygon points="0 0, 10 3.5, 0 7" fill="#39a900"/>
    </marker>
  </defs>
  
  <!-- Background -->
  <rect width="1200" height="950" fill="#0d1117"/>
  
  <!-- Title -->
  <text x="600" y="40" font-family="Segoe UI, Arial" font-size="24" font-weight="bold" fill="#ffffff" text-anchor="middle">SICORA - Plan de Desarrollo Frontend Next.js</text>
  <text x="600" y="65" font-family="Segoe UI, Arial" font-size="14" fill="#8b949e" text-anchor="middle">Backend Go (Producción) + AIService Python | Frontend Next.js 16</text>

  <!-- Architecture Note -->
  <g transform="translate(30, 85)">
    <rect x="0" y="0" width="600" height="45" rx="8" fill="#21262d" stroke="#f0883e" stroke-width="2"/>
    <text x="15" y="18" font-family="Segoe UI, Arial" font-size="11" font-weight="bold" fill="#f0883e">⚠️ NOTA ARQUITECTÓNICA:</text>
    <text x="15" y="35" font-family="Segoe UI, Arial" font-size="10" fill="#c9d1d9">Backend Producción: Go (Gin) | AIService: Python (FastAPI) | Python services: ejercicio académico</text>
  </g>

  <!-- Legend -->
  <g transform="translate(650, 85)">
    <rect x="0" y="0" width="520" height="45" rx="8" fill="#161b22" stroke="#30363d"/>
    <text x="15" y="16" font-family="Segoe UI, Arial" font-size="11" font-weight="bold" fill="#8b949e">LEYENDA:</text>
    <circle cx="100" cy="20" r="6" fill="#39a900"/>
    <text x="112" y="24" font-family="Segoe UI, Arial" font-size="10" fill="#c9d1d9">Completado</text>
    <circle cx="180" cy="20" r="6" fill="#f0883e"/>
    <text x="192" y="24" font-family="Segoe UI, Arial" font-size="10" fill="#c9d1d9">En desarrollo</text>
    <circle cx="275" cy="20" r="6" fill="#484f58"/>
    <text x="287" y="24" font-family="Segoe UI, Arial" font-size="10" fill="#c9d1d9">Pendiente</text>
    <rect x="350" y="14" width="12" height="12" rx="2" fill="#00ADD8"/>
    <text x="367" y="24" font-family="Segoe UI, Arial" font-size="10" fill="#c9d1d9">Go</text>
    <rect x="400" y="14" width="12" height="12" rx="2" fill="#3776AB"/>
    <text x="417" y="24" font-family="Segoe UI, Arial" font-size="10" fill="#c9d1d9">Python</text>
    <rect x="460" y="14" width="12" height="12" rx="2" fill="#000000" stroke="#ffffff"/>
    <text x="477" y="24" font-family="Segoe UI, Arial" font-size="10" fill="#c9d1d9">Next.js</text>
  </g>

  <!-- Progress Bar -->
  <g transform="translate(30, 145)">
    <rect x="0" y="0" width="1140" height="35" rx="8" fill="#161b22" stroke="#30363d"/>
    <text x="20" y="23" font-family="Segoe UI, Arial" font-size="12" font-weight="bold" fill="#c9d1d9">Progreso Global: 6/39 HUs (15%)</text>
    <rect x="250" y="10" width="400" height="14" rx="4" fill="#21262d"/>
    <rect x="250" y="10" width="60" height="14" rx="4" fill="#39a900"/>
    <rect x="310" y="10" width="20" height="14" fill="#f0883e"/>
    <text x="680" y="23" font-family="Segoe UI, Arial" font-size="11" fill="#8b949e">140+ endpoints Go backend | 6 endpoints AIService Python</text>
  </g>

  <!-- Frontend Stack -->
  <g transform="translate(30, 200)">
    <rect x="0" y="0" width="280" height="120" rx="12" fill="#161b22" stroke="#ffffff" stroke-width="2"/>
    <rect x="0" y="0" width="280" height="30" rx="12" fill="#000000"/>
    <rect x="0" y="15" width="280" height="15" fill="#000000"/>
    <text x="140" y="22" font-family="Segoe UI, Arial" font-size="13" font-weight="bold" fill="#ffffff" text-anchor="middle">🖥️ FRONTEND (Next.js 16)</text>
    
    <g transform="translate(15, 45)">
      <text x="0" y="0" font-family="Segoe UI, Arial" font-size="10" fill="#39a900">• Next.js 16.1.1 + React 19</text>
      <text x="0" y="18" font-family="Segoe UI, Arial" font-size="10" fill="#39a900">• Tailwind CSS v4</text>
      <text x="0" y="36" font-family="Segoe UI, Arial" font-size="10" fill="#39a900">• TanStack Query v5</text>
      <text x="0" y="54" font-family="Segoe UI, Arial" font-size="10" fill="#39a900">• Zustand + Zod</text>
    </g>
  </g>

  <!-- API Gateway -->
  <g transform="translate(340, 200)">
    <rect x="0" y="0" width="200" height="120" rx="12" fill="#161b22" stroke="#00ADD8" stroke-width="2"/>
    <rect x="0" y="0" width="200" height="30" rx="12" fill="#00ADD8"/>
    <rect x="0" y="15" width="200" height="15" fill="#00ADD8"/>
    <text x="100" y="22" font-family="Segoe UI, Arial" font-size="13" font-weight="bold" fill="#ffffff" text-anchor="middle">🌐 API Gateway (Go)</text>
    
    <g transform="translate(15, 45)">
      <text x="0" y="0" font-family="Segoe UI, Arial" font-size="10" fill="#c9d1d9">• JWT Validation</text>
      <text x="0" y="18" font-family="Segoe UI, Arial" font-size="10" fill="#c9d1d9">• Rate Limiting</text>
      <text x="0" y="36" font-family="Segoe UI, Arial" font-size="10" fill="#c9d1d9">• Request Routing</text>
      <text x="0" y="54" font-family="Segoe UI, Arial" font-size="10" fill="#c9d1d9">• CORS Headers</text>
    </g>
  </g>

  <!-- Arrow Frontend to Gateway -->
  <line x1="310" y1="260" x2="340" y2="260" stroke="#39a900" stroke-width="2" marker-end="url(#arrowhead)"/>

  <!-- Go Backend Services Row 1 -->
  <g transform="translate(570, 200)">
    <rect x="0" y="0" width="280" height="55" rx="8" fill="#161b22" stroke="#00ADD8"/>
    <rect x="0" y="0" width="280" height="22" rx="8" fill="#00ADD8"/>
    <rect x="0" y="10" width="280" height="12" fill="#00ADD8"/>
    <text x="140" y="16" font-family="Segoe UI, Arial" font-size="11" font-weight="bold" fill="#ffffff" text-anchor="middle">UserService (Go)</text>
    <text x="15" y="42" font-family="Segoe UI, Arial" font-size="9" fill="#8b949e">15 endpoints: Auth, Users CRUD, Profile</text>
  </g>

  <g transform="translate(870, 200)">
    <rect x="0" y="0" width="280" height="55" rx="8" fill="#161b22" stroke="#00ADD8"/>
    <rect x="0" y="0" width="280" height="22" rx="8" fill="#00ADD8"/>
    <rect x="0" y="10" width="280" height="12" fill="#00ADD8"/>
    <text x="140" y="16" font-family="Segoe UI, Arial" font-size="11" font-weight="bold" fill="#ffffff" text-anchor="middle">ScheduleService (Go)</text>
    <text x="15" y="42" font-family="Segoe UI, Arial" font-size="9" fill="#8b949e">13 endpoints: Schedules, Master Data</text>
  </g>

  <!-- Go Backend Services Row 2 -->
  <g transform="translate(570, 265)">
    <rect x="0" y="0" width="280" height="55" rx="8" fill="#161b22" stroke="#00ADD8"/>
    <rect x="0" y="0" width="280" height="22" rx="8" fill="#00ADD8"/>
    <rect x="0" y="10" width="280" height="12" fill="#00ADD8"/>
    <text x="140" y="16" font-family="Segoe UI, Arial" font-size="11" font-weight="bold" fill="#ffffff" text-anchor="middle">AttendanceService (Go)</text>
    <text x="15" y="42" font-family="Segoe UI, Arial" font-size="9" fill="#8b949e">28 endpoints: Attendance, Alerts, QR, Justifications</text>
  </g>

  <g transform="translate(870, 265)">
    <rect x="0" y="0" width="280" height="55" rx="8" fill="#161b22" stroke="#00ADD8"/>
    <rect x="0" y="0" width="280" height="22" rx="8" fill="#00ADD8"/>
    <rect x="0" y="10" width="280" height="12" fill="#00ADD8"/>
    <text x="140" y="16" font-family="Segoe UI, Arial" font-size="11" font-weight="bold" fill="#ffffff" text-anchor="middle">EvalinService (Go)</text>
    <text x="15" y="42" font-family="Segoe UI, Arial" font-size="9" fill="#8b949e">25+ endpoints: Evaluations, Questions, Reports</text>
  </g>

  <!-- Go Backend Services Row 3 -->
  <g transform="translate(570, 330)">
    <rect x="0" y="0" width="280" height="55" rx="8" fill="#161b22" stroke="#00ADD8"/>
    <rect x="0" y="0" width="280" height="22" rx="8" fill="#00ADD8"/>
    <rect x="0" y="10" width="280" height="12" fill="#00ADD8"/>
    <text x="140" y="16" font-family="Segoe UI, Arial" font-size="11" font-weight="bold" fill="#ffffff" text-anchor="middle">KbService (Go)</text>
    <text x="15" y="42" font-family="Segoe UI, Arial" font-size="9" fill="#8b949e">32 endpoints: Documents, FAQs, Analytics</text>
  </g>

  <g transform="translate(870, 330)">
    <rect x="0" y="0" width="280" height="55" rx="8" fill="#161b22" stroke="#00ADD8"/>
    <rect x="0" y="0" width="280" height="22" rx="8" fill="#00ADD8"/>
    <rect x="0" y="10" width="280" height="12" fill="#00ADD8"/>
    <text x="140" y="16" font-family="Segoe UI, Arial" font-size="11" font-weight="bold" fill="#ffffff" text-anchor="middle">MevalService (Go)</text>
    <text x="15" y="42" font-family="Segoe UI, Arial" font-size="9" fill="#8b949e">22 endpoints: Committees, Cases, Sanctions</text>
  </g>

  <!-- Go Backend Services Row 4 -->
  <g transform="translate(570, 395)">
    <rect x="0" y="0" width="280" height="55" rx="8" fill="#161b22" stroke="#00ADD8"/>
    <rect x="0" y="0" width="280" height="22" rx="8" fill="#00ADD8"/>
    <rect x="0" y="10" width="280" height="12" fill="#00ADD8"/>
    <text x="140" y="16" font-family="Segoe UI, Arial" font-size="11" font-weight="bold" fill="#ffffff" text-anchor="middle">ProjectEvalService (Go)</text>
    <text x="15" y="42" font-family="Segoe UI, Arial" font-size="9" fill="#8b949e">14 endpoints: Projects, Submissions, Evaluations</text>
  </g>

  <!-- AIService Python - ÚNICO -->
  <g transform="translate(870, 395)">
    <rect x="0" y="0" width="280" height="55" rx="8" fill="#161b22" stroke="#3776AB" stroke-width="2"/>
    <rect x="0" y="0" width="280" height="22" rx="8" fill="#3776AB"/>
    <rect x="0" y="10" width="280" height="12" fill="#3776AB"/>
    <text x="140" y="16" font-family="Segoe UI, Arial" font-size="11" font-weight="bold" fill="#ffffff" text-anchor="middle">🤖 AIService (Python) ⭐</text>
    <text x="15" y="42" font-family="Segoe UI, Arial" font-size="9" fill="#f0883e">6 endpoints: Chat, Analyze, Recommendations</text>
  </g>

  <!-- Arrow Gateway to Services -->
  <line x1="540" y1="260" x2="570" y2="230" stroke="#00ADD8" stroke-width="1.5"/>
  <line x1="540" y1="260" x2="570" y2="295" stroke="#00ADD8" stroke-width="1.5"/>
  <line x1="540" y1="260" x2="570" y2="360" stroke="#00ADD8" stroke-width="1.5"/>
  <line x1="540" y1="260" x2="570" y2="425" stroke="#00ADD8" stroke-width="1.5"/>

  <!-- Development Phases -->
  <text x="600" y="490" font-family="Segoe UI, Arial" font-size="16" font-weight="bold" fill="#ffffff" text-anchor="middle">📅 FASES DE DESARROLLO (16 Sprints)</text>

  <!-- Phase 1: Auth - COMPLETED -->
  <g transform="translate(30, 510)">
    <rect x="0" y="0" width="175" height="140" rx="10" fill="#0d1117" stroke="#39a900" stroke-width="2"/>
    <rect x="0" y="0" width="175" height="28" rx="10" fill="#39a900"/>
    <rect x="0" y="15" width="175" height="13" fill="#39a900"/>
    <text x="87" y="20" font-family="Segoe UI, Arial" font-size="11" font-weight="bold" fill="#ffffff" text-anchor="middle">FASE 1: Auth ✅</text>
    
    <g transform="translate(10, 40)">
      <circle cx="6" cy="6" r="4" fill="#39a900"/>
      <text x="15" y="10" font-family="Segoe UI, Arial" font-size="9" fill="#c9d1d9">Login/Logout</text>
      <circle cx="6" cy="24" r="4" fill="#39a900"/>
      <text x="15" y="28" font-family="Segoe UI, Arial" font-size="9" fill="#c9d1d9">Forgot Password</text>
      <circle cx="6" cy="42" r="4" fill="#39a900"/>
      <text x="15" y="46" font-family="Segoe UI, Arial" font-size="9" fill="#c9d1d9">Change Password</text>
      <circle cx="6" cy="60" r="4" fill="#39a900"/>
      <text x="15" y="64" font-family="Segoe UI, Arial" font-size="9" fill="#c9d1d9">Reset Password</text>
      <circle cx="6" cy="78" r="4" fill="#39a900"/>
      <text x="15" y="82" font-family="Segoe UI, Arial" font-size="9" fill="#c9d1d9">AuthContext</text>
    </g>
  </g>

  <!-- Phase 2: Dashboard - IN PROGRESS -->
  <g transform="translate(215, 510)">
    <rect x="0" y="0" width="175" height="140" rx="10" fill="#0d1117" stroke="#f0883e" stroke-width="2"/>
    <rect x="0" y="0" width="175" height="28" rx="10" fill="#f0883e"/>
    <rect x="0" y="15" width="175" height="13" fill="#f0883e"/>
    <text x="87" y="20" font-family="Segoe UI, Arial" font-size="11" font-weight="bold" fill="#ffffff" text-anchor="middle">FASE 2: Dashboard 🚧</text>
    
    <g transform="translate(10, 40)">
      <circle cx="6" cy="6" r="4" fill="#f0883e"/>
      <text x="15" y="10" font-family="Segoe UI, Arial" font-size="9" fill="#c9d1d9">Dashboard Aprendiz</text>
      <circle cx="6" cy="24" r="4" fill="#39a900"/>
      <text x="15" y="28" font-family="Segoe UI, Arial" font-size="9" fill="#c9d1d9">Saludo Personal</text>
      <circle cx="6" cy="42" r="4" fill="#484f58"/>
      <text x="15" y="46" font-family="Segoe UI, Arial" font-size="9" fill="#c9d1d9">Widgets Aprendiz</text>
      <circle cx="6" cy="60" r="4" fill="#f0883e"/>
      <text x="15" y="64" font-family="Segoe UI, Arial" font-size="9" fill="#c9d1d9">Dashboard Instructor</text>
      <circle cx="6" cy="78" r="4" fill="#484f58"/>
      <text x="15" y="82" font-family="Segoe UI, Arial" font-size="9" fill="#c9d1d9">Dashboard Admin</text>
    </g>
  </g>

  <!-- Phase 3-4: Users & Schedules -->
  <g transform="translate(400, 510)">
    <rect x="0" y="0" width="175" height="140" rx="10" fill="#0d1117" stroke="#484f58" stroke-width="2"/>
    <rect x="0" y="0" width="175" height="28" rx="10" fill="#484f58"/>
    <rect x="0" y="15" width="175" height="13" fill="#484f58"/>
    <text x="87" y="20" font-family="Segoe UI, Arial" font-size="11" font-weight="bold" fill="#ffffff" text-anchor="middle">FASE 3-4: Users/Schedule</text>
    
    <g transform="translate(10, 40)">
      <circle cx="6" cy="6" r="4" fill="#484f58"/>
      <text x="15" y="10" font-family="Segoe UI, Arial" font-size="9" fill="#c9d1d9">CRUD Usuarios</text>
      <circle cx="6" cy="24" r="4" fill="#484f58"/>
      <text x="15" y="28" font-family="Segoe UI, Arial" font-size="9" fill="#c9d1d9">Perfil/Editar</text>
      <circle cx="6" cy="42" r="4" fill="#484f58"/>
      <text x="15" y="46" font-family="Segoe UI, Arial" font-size="9" fill="#c9d1d9">Ver Horarios</text>
      <circle cx="6" cy="60" r="4" fill="#484f58"/>
      <text x="15" y="64" font-family="Segoe UI, Arial" font-size="9" fill="#c9d1d9">Gestión Master Data</text>
      <circle cx="6" cy="78" r="4" fill="#484f58"/>
      <text x="15" y="82" font-family="Segoe UI, Arial" font-size="9" fill="#c9d1d9">Programas/Fichas</text>
    </g>
  </g>

  <!-- Phase 5-6: Attendance -->
  <g transform="translate(585, 510)">
    <rect x="0" y="0" width="175" height="140" rx="10" fill="#0d1117" stroke="#484f58" stroke-width="2"/>
    <rect x="0" y="0" width="175" height="28" rx="10" fill="#484f58"/>
    <rect x="0" y="15" width="175" height="13" fill="#484f58"/>
    <text x="87" y="20" font-family="Segoe UI, Arial" font-size="11" font-weight="bold" fill="#ffffff" text-anchor="middle">FASE 5-6: Asistencia</text>
    
    <g transform="translate(10, 40)">
      <circle cx="6" cy="6" r="4" fill="#484f58"/>
      <text x="15" y="10" font-family="Segoe UI, Arial" font-size="9" fill="#c9d1d9">Registro Asistencia</text>
      <circle cx="6" cy="24" r="4" fill="#484f58"/>
      <text x="15" y="28" font-family="Segoe UI, Arial" font-size="9" fill="#c9d1d9">Códigos QR</text>
      <circle cx="6" cy="42" r="4" fill="#484f58"/>
      <text x="15" y="46" font-family="Segoe UI, Arial" font-size="9" fill="#c9d1d9">Justificaciones</text>
      <circle cx="6" cy="60" r="4" fill="#484f58"/>
      <text x="15" y="64" font-family="Segoe UI, Arial" font-size="9" fill="#c9d1d9">Sistema Alertas</text>
      <circle cx="6" cy="78" r="4" fill="#484f58"/>
      <text x="15" y="82" font-family="Segoe UI, Arial" font-size="9" fill="#c9d1d9">Historial</text>
    </g>
  </g>

  <!-- Phase 7-8: Evaluations -->
  <g transform="translate(770, 510)">
    <rect x="0" y="0" width="175" height="140" rx="10" fill="#0d1117" stroke="#484f58" stroke-width="2"/>
    <rect x="0" y="0" width="175" height="28" rx="10" fill="#484f58"/>
    <rect x="0" y="15" width="175" height="13" fill="#484f58"/>
    <text x="87" y="20" font-family="Segoe UI, Arial" font-size="11" font-weight="bold" fill="#ffffff" text-anchor="middle">FASE 7-8: EvalinService</text>
    
    <g transform="translate(10, 40)">
      <circle cx="6" cy="6" r="4" fill="#484f58"/>
      <text x="15" y="10" font-family="Segoe UI, Arial" font-size="9" fill="#c9d1d9">Cuestionarios</text>
      <circle cx="6" cy="24" r="4" fill="#484f58"/>
      <text x="15" y="28" font-family="Segoe UI, Arial" font-size="9" fill="#c9d1d9">Preguntas</text>
      <circle cx="6" cy="42" r="4" fill="#484f58"/>
      <text x="15" y="46" font-family="Segoe UI, Arial" font-size="9" fill="#c9d1d9">Periodos</text>
      <circle cx="6" cy="60" r="4" fill="#484f58"/>
      <text x="15" y="64" font-family="Segoe UI, Arial" font-size="9" fill="#c9d1d9">Reportes</text>
      <circle cx="6" cy="78" r="4" fill="#484f58"/>
      <text x="15" y="82" font-family="Segoe UI, Arial" font-size="9" fill="#c9d1d9">Configuración</text>
    </g>
  </g>

  <!-- Phase 9-10: KB -->
  <g transform="translate(955, 510)">
    <rect x="0" y="0" width="175" height="140" rx="10" fill="#0d1117" stroke="#484f58" stroke-width="2"/>
    <rect x="0" y="0" width="175" height="28" rx="10" fill="#484f58"/>
    <rect x="0" y="15" width="175" height="13" fill="#484f58"/>
    <text x="87" y="20" font-family="Segoe UI, Arial" font-size="11" font-weight="bold" fill="#ffffff" text-anchor="middle">FASE 9-10: KbService</text>
    
    <g transform="translate(10, 40)">
      <circle cx="6" cy="6" r="4" fill="#484f58"/>
      <text x="15" y="10" font-family="Segoe UI, Arial" font-size="9" fill="#c9d1d9">Documentos</text>
      <circle cx="6" cy="24" r="4" fill="#484f58"/>
      <text x="15" y="28" font-family="Segoe UI, Arial" font-size="9" fill="#c9d1d9">Búsqueda Semántica</text>
      <circle cx="6" cy="42" r="4" fill="#484f58"/>
      <text x="15" y="46" font-family="Segoe UI, Arial" font-size="9" fill="#c9d1d9">FAQs</text>
      <circle cx="6" cy="60" r="4" fill="#484f58"/>
      <text x="15" y="64" font-family="Segoe UI, Arial" font-size="9" fill="#c9d1d9">Workflow</text>
      <circle cx="6" cy="78" r="4" fill="#484f58"/>
      <text x="15" y="82" font-family="Segoe UI, Arial" font-size="9" fill="#c9d1d9">Analytics</text>
    </g>
  </g>

  <!-- Phase 11-14: Meval, ProjectEval, AI -->
  <g transform="translate(30, 670)">
    <rect x="0" y="0" width="270" height="120" rx="10" fill="#0d1117" stroke="#484f58" stroke-width="2"/>
    <rect x="0" y="0" width="270" height="28" rx="10" fill="#484f58"/>
    <rect x="0" y="15" width="270" height="13" fill="#484f58"/>
    <text x="135" y="20" font-family="Segoe UI, Arial" font-size="11" font-weight="bold" fill="#ffffff" text-anchor="middle">FASE 11-12: Meval + ProjectEval</text>
    
    <g transform="translate(10, 40)">
      <circle cx="6" cy="6" r="4" fill="#484f58"/>
      <text x="15" y="10" font-family="Segoe UI, Arial" font-size="9" fill="#c9d1d9">Comités / Casos Estudiantes</text>
      <circle cx="6" cy="24" r="4" fill="#484f58"/>
      <text x="15" y="28" font-family="Segoe UI, Arial" font-size="9" fill="#c9d1d9">Planes de Mejora / Sanciones</text>
      <circle cx="6" cy="42" r="4" fill="#484f58"/>
      <text x="15" y="46" font-family="Segoe UI, Arial" font-size="9" fill="#c9d1d9">Apelaciones</text>
      <circle cx="6" cy="60" r="4" fill="#484f58"/>
      <text x="15" y="64" font-family="Segoe UI, Arial" font-size="9" fill="#c9d1d9">Proyectos / Entregas / Evaluaciones</text>
    </g>
  </g>

  <!-- Phase 13-14: AI -->
  <g transform="translate(320, 670)">
    <rect x="0" y="0" width="270" height="120" rx="10" fill="#0d1117" stroke="#3776AB" stroke-width="2"/>
    <rect x="0" y="0" width="270" height="28" rx="10" fill="#3776AB"/>
    <rect x="0" y="15" width="270" height="13" fill="#3776AB"/>
    <text x="135" y="20" font-family="Segoe UI, Arial" font-size="11" font-weight="bold" fill="#ffffff" text-anchor="middle">🤖 FASE 13-14: AIService (Python)</text>
    
    <g transform="translate(10, 40)">
      <circle cx="6" cy="6" r="4" fill="#484f58"/>
      <text x="15" y="10" font-family="Segoe UI, Arial" font-size="9" fill="#c9d1d9">Chat con Asistente IA</text>
      <circle cx="6" cy="24" r="4" fill="#484f58"/>
      <text x="15" y="28" font-family="Segoe UI, Arial" font-size="9" fill="#c9d1d9">Dashboard Predictivo</text>
      <circle cx="6" cy="42" r="4" fill="#484f58"/>
      <text x="15" y="46" font-family="Segoe UI, Arial" font-size="9" fill="#c9d1d9">Optimizador Horarios</text>
      <circle cx="6" cy="60" r="4" fill="#484f58"/>
      <text x="15" y="64" font-family="Segoe UI, Arial" font-size="9" fill="#c9d1d9">Validación CSV / Análisis</text>
    </g>
  </g>

  <!-- Phase 15-16: Offline -->
  <g transform="translate(610, 670)">
    <rect x="0" y="0" width="270" height="120" rx="10" fill="#0d1117" stroke="#484f58" stroke-width="2"/>
    <rect x="0" y="0" width="270" height="28" rx="10" fill="#484f58"/>
    <rect x="0" y="15" width="270" height="13" fill="#484f58"/>
    <text x="135" y="20" font-family="Segoe UI, Arial" font-size="11" font-weight="bold" fill="#ffffff" text-anchor="middle">FASE 15-16: PWA + Offline</text>
    
    <g transform="translate(10, 40)">
      <circle cx="6" cy="6" r="4" fill="#484f58"/>
      <text x="15" y="10" font-family="Segoe UI, Arial" font-size="9" fill="#c9d1d9">Service Worker</text>
      <circle cx="6" cy="24" r="4" fill="#484f58"/>
      <text x="15" y="28" font-family="Segoe UI, Arial" font-size="9" fill="#c9d1d9">IndexedDB Storage</text>
      <circle cx="6" cy="42" r="4" fill="#484f58"/>
      <text x="15" y="46" font-family="Segoe UI, Arial" font-size="9" fill="#c9d1d9">Registro Offline</text>
      <circle cx="6" cy="60" r="4" fill="#484f58"/>
      <text x="15" y="64" font-family="Segoe UI, Arial" font-size="9" fill="#c9d1d9">Conflict Resolution</text>
    </g>
  </g>

  <!-- Summary Stats -->
  <g transform="translate(900, 670)">
    <rect x="0" y="0" width="230" height="120" rx="10" fill="#161b22" stroke="#39a900" stroke-width="2"/>
    <text x="115" y="25" font-family="Segoe UI, Arial" font-size="12" font-weight="bold" fill="#39a900" text-anchor="middle">📊 RESUMEN</text>
    
    <g transform="translate(15, 40)">
      <text x="0" y="0" font-family="Segoe UI, Arial" font-size="10" fill="#c9d1d9">• HUs: 39 totales</text>
      <text x="0" y="18" font-family="Segoe UI, Arial" font-size="10" fill="#c9d1d9">• Go Backend: 140+ endpoints</text>
      <text x="0" y="36" font-family="Segoe UI, Arial" font-size="10" fill="#c9d1d9">• Python AIService: 6 endpoints</text>
      <text x="0" y="54" font-family="Segoe UI, Arial" font-size="10" fill="#c9d1d9">• Sprints: 16 (32 semanas)</text>
      <text x="0" y="72" font-family="Segoe UI, Arial" font-size="10" fill="#c9d1d9">• Meta: Lighthouse > 90</text>
    </g>
  </g>

  <!-- Footer -->
  <text x="600" y="820" font-family="Segoe UI, Arial" font-size="10" fill="#484f58" text-anchor="middle">SICORA © 2025 - OneVision - Plan de Desarrollo Frontend v1.1</text>
  <text x="600" y="838" font-family="Segoe UI, Arial" font-size="9" fill="#484f58" text-anchor="middle">Backend: Go (Gin) + AIService (Python FastAPI) | Frontend: Next.js 16 + React 19 + Tailwind v4</text>
</svg>
