<svg xmlns="http://www.w3.org/2000/svg" viewBox="0 0 1200 900">
  <defs>
    <style>
      .title { font-family: 'Segoe UI', Arial, sans-serif; font-size: 28px; font-weight: bold; fill: #e0e0e0; }
      .subtitle { font-family: 'Segoe UI', Arial, sans-serif; font-size: 16px; fill: #a0a0a0; }
      .service-name { font-family: 'Segoe UI', Arial, sans-serif; font-size: 14px; font-weight: bold; fill: #ffffff; }
      .status-text { font-family: 'Segoe UI', Arial, sans-serif; font-size: 12px; fill: #b0b0b0; }
      .percent { font-family: 'Segoe UI', Arial, sans-serif; font-size: 18px; font-weight: bold; }
      .legend-text { font-family: 'Segoe UI', Arial, sans-serif; font-size: 11px; fill: #c0c0c0; }
      .column-header { font-family: 'Segoe UI', Arial, sans-serif; font-size: 13px; font-weight: bold; fill: #8ab4f8; }
      .metric-label { font-family: 'Segoe UI', Arial, sans-serif; font-size: 11px; fill: #a0a0a0; }
      .metric-value { font-family: 'Segoe UI', Arial, sans-serif; font-size: 20px; font-weight: bold; fill: #4caf50; }
    </style>
  </defs>
  
  <!-- Background -->
  <rect width="1200" height="900" fill="#1e1e1e"/>
  
  <!-- Header -->
  <text x="600" y="40" text-anchor="middle" class="title">AUDITORÍA BACKEND SICORA - ENERO 2026</text>
  <text x="600" y="65" text-anchor="middle" class="subtitle">Sincronización Completa con Acuerdo OneVision 009/2024</text>
  
  <!-- Grid lines -->
  <line x1="50" y1="90" x2="1150" y2="90" stroke="#333" stroke-width="1"/>
  
  <!-- Python Backend Section -->
  <rect x="50" y="100" width="530" height="35" fill="#2d5a8a" rx="5"/>
  <text x="315" y="123" text-anchor="middle" class="service-name">🐍 BACKEND PYTHON (FastAPI)</text>
  
  <!-- Go Backend Section -->
  <rect x="620" y="100" width="530" height="35" fill="#00796b" rx="5"/>
  <text x="885" y="123" text-anchor="middle" class="service-name">🔷 BACKEND GO (Gin) - ✅ 100% COMPILABLE</text>
  
  <!-- Column Headers Python -->
  <text x="70" y="160" class="column-header">Servicio</text>
  <text x="200" y="160" class="column-header">Doc %</text>
  <text x="280" y="160" class="column-header">Real %</text>
  <text x="360" y="160" class="column-header">Estado</text>
  <text x="480" y="160" class="column-header">Endpoints</text>
  
  <!-- Column Headers Go -->
  <text x="640" y="160" class="column-header">Servicio</text>
  <text x="770" y="160" class="column-header">Doc %</text>
  <text x="850" y="160" class="column-header">Real %</text>
  <text x="930" y="160" class="column-header">Estado</text>
  <text x="1050" y="160" class="column-header">Compila</text>
  
  <!-- Python Services -->
  <!-- UserService -->
  <rect x="50" y="175" width="530" height="40" fill="#2d2d2d" rx="3"/>
  <text x="70" y="200" class="service-name" fill="#4caf50">UserService</text>
  <text x="210" y="200" class="percent" fill="#4caf50">100%</text>
  <text x="290" y="200" class="percent" fill="#4caf50">100%</text>
  <circle cx="380" cy="195" r="8" fill="#4caf50"/>
  <text x="395" y="200" class="status-text">✓ Completo</text>
  <text x="490" y="200" class="status-text">26 endpoints</text>
  
  <!-- ScheduleService -->
  <rect x="50" y="220" width="530" height="40" fill="#252525" rx="3"/>
  <text x="70" y="245" class="service-name" fill="#4caf50">ScheduleService</text>
  <text x="210" y="245" class="percent" fill="#4caf50">100%</text>
  <text x="290" y="245" class="percent" fill="#4caf50">100%</text>
  <circle cx="380" cy="240" r="8" fill="#4caf50"/>
  <text x="395" y="245" class="status-text">✓ Completo</text>
  <text x="490" y="245" class="status-text">12 endpoints</text>
  
  <!-- AttendanceService -->
  <rect x="50" y="265" width="530" height="40" fill="#2d2d2d" rx="3"/>
  <text x="70" y="290" class="service-name" fill="#4caf50">AttendanceService</text>
  <text x="210" y="290" class="percent" fill="#4caf50">100%</text>
  <text x="290" y="290" class="percent" fill="#4caf50">100%</text>
  <circle cx="380" cy="285" r="8" fill="#4caf50"/>
  <text x="395" y="290" class="status-text">✓ Completo</text>
  <text x="490" y="290" class="status-text">18 endpoints</text>
  
  <!-- EvalinService -->
  <rect x="50" y="310" width="530" height="40" fill="#252525" rx="3"/>
  <text x="70" y="335" class="service-name" fill="#4caf50">EvalinService</text>
  <text x="210" y="335" class="percent" fill="#4caf50">100%</text>
  <text x="290" y="335" class="percent" fill="#4caf50">100%</text>
  <circle cx="380" cy="330" r="8" fill="#4caf50"/>
  <text x="395" y="335" class="status-text">✓ Completo</text>
  <text x="490" y="335" class="status-text">40 endpoints</text>
  
  <!-- KbService -->
  <rect x="50" y="355" width="530" height="40" fill="#2d2d2d" rx="3"/>
  <text x="70" y="380" class="service-name" fill="#4caf50">KbService</text>
  <text x="210" y="380" class="percent" fill="#4caf50">100%</text>
  <text x="290" y="380" class="percent" fill="#4caf50">100%</text>
  <circle cx="380" cy="375" r="8" fill="#4caf50"/>
  <text x="395" y="380" class="status-text">✓ Completo</text>
  <text x="490" y="380" class="status-text">22 endpoints</text>
  
  <!-- AIService -->
  <rect x="50" y="400" width="530" height="40" fill="#252525" rx="3"/>
  <text x="70" y="425" class="service-name" fill="#ff9800">AIService</text>
  <text x="210" y="425" class="percent" fill="#f44336">5%</text>
  <text x="290" y="425" class="percent" fill="#ffeb3b">40%</text>
  <circle cx="380" cy="420" r="8" fill="#ff9800"/>
  <text x="395" y="425" class="status-text">⚠ En desarrollo</text>
  <text x="490" y="425" class="status-text">6 routers</text>
  
  <!-- ProjectEvalService Python -->
  <rect x="50" y="445" width="530" height="40" fill="#2d2d2d" rx="3"/>
  <text x="70" y="470" class="service-name" fill="#ff9800">ProjectEvalService</text>
  <text x="210" y="470" class="percent" fill="#ffeb3b">23%</text>
  <text x="290" y="470" class="percent" fill="#ffeb3b">35%</text>
  <circle cx="380" cy="465" r="8" fill="#ff9800"/>
  <text x="395" y="470" class="status-text">⚠ Parcial</text>
  <text x="490" y="470" class="status-text">2 controllers</text>
  
  <!-- ApiGateway -->
  <rect x="50" y="490" width="530" height="40" fill="#252525" rx="3"/>
  <text x="70" y="515" class="service-name" fill="#4caf50">ApiGateway</text>
  <text x="210" y="515" class="percent" fill="#4caf50">90%</text>
  <text x="290" y="515" class="percent" fill="#4caf50">90%</text>
  <circle cx="380" cy="510" r="8" fill="#4caf50"/>
  <text x="395" y="515" class="status-text">✓ Funcional</text>
  <text x="490" y="515" class="status-text">Proxy + Auth</text>
  
  <!-- MevalService Python -->
  <rect x="50" y="535" width="530" height="40" fill="#2d2d2d" rx="3"/>
  <text x="70" y="560" class="service-name" fill="#f44336">MevalService</text>
  <text x="210" y="560" class="percent" fill="#f44336">0%</text>
  <text x="290" y="560" class="percent" fill="#f44336">5%</text>
  <circle cx="380" cy="555" r="8" fill="#f44336"/>
  <text x="395" y="560" class="status-text">✗ Pendiente</text>
  <text x="490" y="560" class="status-text">Solo estructura</text>
  
  <!-- GO Services - TODOS COMPILABLES -->
  <!-- UserService Go -->
  <rect x="620" y="175" width="530" height="40" fill="#2d2d2d" rx="3"/>
  <text x="640" y="200" class="service-name" fill="#4caf50">userservice</text>
  <text x="780" y="200" class="percent" fill="#4caf50">100%</text>
  <text x="860" y="200" class="percent" fill="#4caf50">100%</text>
  <circle cx="950" cy="195" r="8" fill="#4caf50"/>
  <text x="965" y="200" class="status-text">✓ Completo</text>
  <text x="1065" y="200" class="status-text" fill="#4caf50">✓ Sí</text>
  
  <!-- AttendanceService Go -->
  <rect x="620" y="220" width="530" height="40" fill="#252525" rx="3"/>
  <text x="640" y="245" class="service-name" fill="#4caf50">attendanceservice</text>
  <text x="780" y="245" class="percent" fill="#4caf50">100%</text>
  <text x="860" y="245" class="percent" fill="#4caf50">100%</text>
  <circle cx="950" cy="240" r="8" fill="#4caf50"/>
  <text x="965" y="245" class="status-text">✓ Completo</text>
  <text x="1065" y="245" class="status-text" fill="#4caf50">✓ Sí</text>
  
  <!-- ScheduleService Go -->
  <rect x="620" y="265" width="530" height="40" fill="#2d2d2d" rx="3"/>
  <text x="640" y="290" class="service-name" fill="#4caf50">scheduleservice</text>
  <text x="780" y="290" class="percent" fill="#4caf50">100%</text>
  <text x="860" y="290" class="percent" fill="#4caf50">100%</text>
  <circle cx="950" cy="285" r="8" fill="#4caf50"/>
  <text x="965" y="290" class="status-text">✓ Completo</text>
  <text x="1065" y="290" class="status-text" fill="#4caf50">✓ Sí</text>
  
  <!-- EvalinService Go -->
  <rect x="620" y="310" width="530" height="40" fill="#252525" rx="3"/>
  <text x="640" y="335" class="service-name" fill="#4caf50">evalinservice</text>
  <text x="780" y="335" class="percent" fill="#4caf50">100%</text>
  <text x="860" y="335" class="percent" fill="#4caf50">100%</text>
  <circle cx="950" cy="330" r="8" fill="#4caf50"/>
  <text x="965" y="335" class="status-text">✓ Completo</text>
  <text x="1065" y="335" class="status-text" fill="#4caf50">✓ Sí</text>
  
  <!-- MevalService Go -->
  <rect x="620" y="355" width="530" height="40" fill="#2d2d2d" rx="3"/>
  <text x="640" y="380" class="service-name" fill="#4caf50">mevalservice</text>
  <text x="780" y="380" class="percent" fill="#4caf50">100%</text>
  <text x="860" y="380" class="percent" fill="#4caf50">100%</text>
  <circle cx="950" cy="375" r="8" fill="#4caf50"/>
  <text x="965" y="380" class="status-text">✓ Completo</text>
  <text x="1065" y="380" class="status-text" fill="#4caf50">✓ Sí</text>
  
  <!-- KbService Go -->
  <rect x="620" y="400" width="530" height="40" fill="#252525" rx="3"/>
  <text x="640" y="425" class="service-name" fill="#4caf50">kbservice</text>
  <text x="780" y="425" class="percent" fill="#4caf50">100%</text>
  <text x="860" y="425" class="percent" fill="#4caf50">100%</text>
  <circle cx="950" cy="420" r="8" fill="#4caf50"/>
  <text x="965" y="425" class="status-text">✓ Completo</text>
  <text x="1065" y="425" class="status-text" fill="#4caf50">✓ Sí</text>
  
  <!-- Summary Metrics Section -->
  <rect x="50" y="500" width="1100" height="120" fill="#252525" rx="8"/>
  <text x="600" y="525" text-anchor="middle" class="service-name">📊 RESUMEN CONSOLIDADO - KBSERVICE PYTHON 100% ✓</text>
  
  <!-- Python Metrics -->
  <rect x="80" y="540" width="200" height="65" fill="#1e3a5f" rx="5"/>
  <text x="180" y="565" text-anchor="middle" class="metric-label">Python Completados</text>
  <text x="180" y="595" text-anchor="middle" class="metric-value">7/9 (78%)</text>
  
  <!-- Go Metrics -->
  <rect x="310" y="540" width="200" height="65" fill="#004d40" rx="5"/>
  <text x="410" y="565" text-anchor="middle" class="metric-label">Go Compilables</text>
  <text x="410" y="595" text-anchor="middle" class="metric-value" fill="#4caf50">6/6 (100%)</text>
  
  <!-- HUs Metrics -->
  <rect x="540" y="540" width="200" height="65" fill="#3e2723" rx="5"/>
  <text x="640" y="565" text-anchor="middle" class="metric-label">HUs Backend</text>
  <text x="640" y="595" text-anchor="middle" class="metric-value">50/73 (68%)</text>
  
  <!-- Endpoints Metrics -->
  <rect x="770" y="540" width="200" height="65" fill="#1a237e" rx="5"/>
  <text x="870" y="565" text-anchor="middle" class="metric-label">Endpoints Totales</text>
  <text x="870" y="595" text-anchor="middle" class="metric-value">150+</text>
  
  <!-- Discrepancy Alert -->
  <rect x="1000" y="540" width="120" height="65" fill="#1b5e20" rx="5"/>
  <text x="1060" y="565" text-anchor="middle" class="metric-label" fill="#ffffff">Corregidos</text>
  <text x="1060" y="595" text-anchor="middle" class="metric-value" fill="#ffffff">12</text>
  
  <!-- Legend -->
  <rect x="50" y="640" width="1100" height="55" fill="#1e1e1e" stroke="#333" rx="5"/>
  <text x="80" y="670" class="legend-text">LEYENDA:</text>
  <circle cx="170" cy="668" r="6" fill="#4caf50"/>
  <text x="185" y="673" class="legend-text">Completo/Funcional</text>
  <circle cx="320" cy="668" r="6" fill="#ff9800"/>
  <text x="335" y="673" class="legend-text">En desarrollo/Parcial</text>
  <circle cx="490" cy="668" r="6" fill="#f44336"/>
  <text x="505" y="673" class="legend-text">Incompleto/Pendiente</text>
  <text x="680" y="673" class="legend-text">Doc % = Documentado | Real % = Código verificado</text>
  
  <!-- Footer -->
  <text x="600" y="730" text-anchor="middle" class="subtitle">Generado: 6 Enero 2026 | Proyecto: SICORA - Sistema de Información de Coordinación Académica</text>
  <text x="600" y="755" text-anchor="middle" class="legend-text">✅ KbService Python: 37/37 tests (100%), 22 endpoints | Go: 6/6 compilables | Acuerdo OneVision 009/2024</text>
</svg>
